<svg xmlns="http://www.w3.org/2000/svg" width="144" height="74.372" viewBox="0 0 144 74.372">
  <g id="Group_1" data-name="Group 1" transform="translate(-7677.189 -7613.535)">
    <path id="Path_1" data-name="Path 1" d="M370.25,312.617,394.879,292h14.27c.152,0-24.578,20.617-24.578,20.617Z" transform="translate(7309.646 7331.54)" fill="#de9e53"/>
    <path id="Path_2" data-name="Path 2" d="M480.262,305.906l-.762,7.109,15.895-13.3.863-7.211Z" transform="translate(7223.42 7331.141)" fill="#24262d"/>
    <path id="Path_3" data-name="Path 3" d="M479.5,273.371l36.36-30.621h14.27l-36.36,30.621Z" transform="translate(7223.754 7370.785)" fill="#de9e53"/>
    <path id="Path_4" data-name="Path 4" d="M588,273.371l36.664-30.621,6.957,5.941-29.25,24.68Z" transform="translate(7138.121 7370.785)" fill="#24262d"/>
    <path id="Path_5" data-name="Path 5" d="M768.5,242.75c0,.152,36.359,30.621,36.359,30.621h14.371L782.77,242.75Z" transform="translate(6996.105 7370.785)" fill="#de9e53"/>
    <text id="DINSO" transform="translate(7677.189 7675.907)" font-size="39" font-family="EBGaramond-Regular, EB Garamond" letter-spacing="0.13em"><tspan x="0" y="0">DINSO</tspan></text>
  </g>
</svg>
